<?xml version="1.0" encoding="UTF-8"?>
<svg xmlns="http://www.w3.org/2000/svg" xmlns:xlink="http://www.w3.org/1999/xlink" width="30px" height="30px" viewBox="0 0 100 100" version="1.1">
<g id="surface1">
<path style=" stroke:none;fill-rule:evenodd;fill:rgb(20%,20%,20%);fill-opacity:1;" d="M 81.417969 0 C 87.066406 0 91.667969 4.601562 91.667969 10.300781 L 91.667969 100 L 80.917969 90.5 L 74.867188 84.898438 L 68.464844 78.949219 L 71.117188 88.199219 L 14.417969 88.199219 C 8.765625 88.199219 4.167969 83.601562 4.167969 77.898438 L 4.167969 10.300781 C 4.167969 4.601562 8.765625 0 14.417969 0 Z M 62.117188 65.300781 C 73.167969 64.949219 77.417969 57.699219 77.417969 57.699219 C 77.417969 41.601562 70.214844 28.550781 70.214844 28.550781 C 63.015625 23.148438 56.167969 23.300781 56.167969 23.300781 L 55.464844 24.101562 C 63.964844 26.699219 67.917969 30.449219 67.917969 30.449219 C 62.714844 27.601562 57.617188 26.199219 52.867188 25.648438 C 49.265625 25.25 45.816406 25.351562 42.765625 25.75 L 41.917969 25.851562 C 40.167969 26 35.917969 26.648438 30.566406 29 C 28.714844 29.851562 27.617188 30.449219 27.617188 30.449219 C 27.617188 30.449219 31.765625 26.5 40.765625 23.898438 L 40.265625 23.300781 C 40.265625 23.300781 33.417969 23.148438 26.214844 28.550781 C 26.214844 28.550781 19.015625 41.601562 19.015625 57.699219 C 19.015625 57.699219 23.214844 64.949219 34.265625 65.300781 C 34.265625 65.300781 36.117188 63.050781 37.617188 61.148438 C 31.265625 59.25 28.867188 55.25 28.867188 55.25 L 30.265625 56.101562 L 30.464844 56.25 L 30.664062 56.363281 L 30.722656 56.386719 L 30.917969 56.5 C 32.167969 57.199219 33.417969 57.75 34.566406 58.199219 C 36.617188 59 39.066406 59.800781 41.917969 60.351562 C 45.667969 61.050781 50.066406 61.300781 54.867188 60.398438 C 57.214844 60 59.617188 59.300781 62.117188 58.25 C 63.867188 57.601562 65.816406 56.648438 67.867188 55.300781 C 67.867188 55.300781 65.367188 59.398438 58.816406 61.25 C 60.316406 63.148438 62.117188 65.300781 62.117188 65.300781 Z M 38.867188 41.949219 C 36.015625 41.949219 33.765625 44.449219 33.765625 47.5 C 33.765625 50.550781 36.066406 53.050781 38.867188 53.050781 C 41.714844 53.050781 43.964844 50.550781 43.964844 47.5 C 44.015625 44.449219 41.714844 41.949219 38.867188 41.949219 Z M 57.117188 41.949219 C 54.265625 41.949219 52.015625 44.449219 52.015625 47.5 C 52.015625 50.550781 54.316406 53.050781 57.117188 53.050781 C 59.964844 53.050781 62.214844 50.550781 62.214844 47.5 C 62.214844 44.449219 59.964844 41.949219 57.117188 41.949219 Z M 57.117188 41.949219 "/>
</g>
</svg>
