<svg id="Layer_1" fill="white" data-name="Layer 1" xmlns="http://www.w3.org/2000/svg" viewBox="0 0 399 399"><path fill="none" d="M358,302.29H757v399H358Zm232.25,170.6c1.12.75,2.17,1.49,3.25,2.17,5.55,3.5,11.34,2.22,14.32-3.59a20.56,20.56,0,0,0,2.32-8.54c.55-22.66-9.83-40.59-25.07-56.22-.8-.82-3.65-.58-5,.17-15.39,8.68-30.73,8.86-46-.19-2.5-1.48-4.13-1.59-5.89.68-4.68,6-10.08,11.63-13.92,18.16-6.46,11-11.16,22.76-10.52,35.91.71,14.72,7.77,18.8,19.66,12.14.5,9.61.63,19.53,1.67,29.35,1,9.05,3.93,17.58,10.32,24.43,6.79,7.3,15,5.85,18.88-3.25,1-2.36,1.69-4.86,2.88-8.36.72,2.43,1.08,3.78,1.52,5.11,1.56,4.8,3,9.88,9,10.85s9.84-2.38,13-6.74c6.31-8.79,9-18.9,9.53-29.53C590.56,488,590.25,480.6,590.25,472.89ZM485,519c1.2,3.05,1.95,5.21,2.88,7.27,2.84,6.29,8,7.8,13.19,3.21a29.32,29.32,0,0,0,6.84-9.62c4.66-10.12,5.12-20.94,4-31.84a4.92,4.92,0,0,0-2.65-3.36c-5.89-2.26-9.48-6.55-11.77-12.17-3.79-9.33-2.2-18.69,0-28,1.09-4.57,2.77-9,4.31-13.93-13.6,6.26-26.1,5.17-38.39-3.1-13.32,13.09-22.09,28.16-22.15,47.07,0,10.91,6.44,14.31,16.55,9.42,0,6.34-.39,12.63.09,18.84.72,9.23,2.73,18.21,9.41,25.23,6,6.3,12.23,5.06,15.53-2.88C483.6,523.51,484.1,521.76,485,519Zm165.54-91.57c-12.16,8.53-24.84,9.23-37.43,3.7,1.89,8.29,4.23,16.43,5.5,24.73,2.1,13.72-2.69,22.45-14.73,29a4.43,4.43,0,0,0-1.8,3.05c-1.07,10.9-.71,21.75,4,31.82a31,31,0,0,0,8,10.46c4.34,3.58,8.88,2.11,11.61-2.85,1.29-2.35,2.18-4.91,3.57-8.11.54,2,.77,3.15,1.15,4.23,1.37,3.87,3.23,8.43,7.58,8.2,3.45-.18,6.85-3.19,10.07-5.26a6.82,6.82,0,0,0,2.5-3.65c2-7,4.37-13.94,5.46-21.09.89-5.87.18-12,.18-18.1,9.09,5.69,15.33,2.64,16.55-7.94a20.43,20.43,0,0,0,0-4.49C671,454,663.36,439.88,650.58,427.45ZM557.74,333.5c-19.45-.58-35.81,15.28-36.45,35.32-.61,19.29,15.76,36,35.57,36.24,19.31.26,35.37-15.53,35.95-35.35C593.37,350.57,577.4,334.08,557.74,333.5ZM544.09,615.24c0-9.33-.16-18.13,0-26.94.27-12,.06-12.33-12-11.91-.34,0-.67,0-1,0-3.5.17-5,2.07-5,5.51q-.06,37.76-.2,75.5c0,11.89,0,11.74,12,12.13,4.47.15,5.78-1.43,5.66-5.79-.27-9.93-.08-19.89-.08-30h25.86v23.75c0,11.71,0,11.55,11.61,12,4.53.19,6.11-1.09,6.1-5.85q0-37.74.58-75.48c.18-11.8-.07-12.18-12.16-11.85-4.26.11-6,1.93-5.84,6.16.22,8,.23,16,.2,24,0,2.91-.4,5.82-.61,8.73Zm-64.83-40.16a102,102,0,0,0-10.37,1.28c-11.32,2.57-17,10.55-19.18,21.29-2,9.66-.14,18.47,8.54,24.32,4.51,3,9.62,5.21,14.58,7.49s9.92,3.86,14.69,6.17c4,1.93,5,5.51,3.86,9.74-1.37,5-5.23,7.68-10.92,7.6-7.63-.1-12.09-3.06-13.23-9.55-.71-4.08-1.79-7.2-6.61-7a86.41,86.41,0,0,0-11.27,1c-.68.12-1.36,2.53-1.35,3.88.09,14.7,8.63,25.53,23.13,28.33a56.22,56.22,0,0,0,16.84.16c10.48-1.21,17.08-7.5,20.34-17.46s3-19.54-4.89-26.88c-4.31-4-10.43-6.18-15.92-8.77-5.09-2.4-10.72-3.76-15.61-6.47-6.6-3.64-6.34-11.3.05-15.34,7-4.42,18-.51,19.79,7.52,1,4.68,3.46,6,7.62,5.83,1.66-.05,3.33,0,5,0,5.61-.16,7.12-1.93,6.39-7.46C508.61,584.39,497.43,575.38,479.26,575.08ZM620.54,624c.52-7.43.76-14.26,1.56-21,.56-4.78,3-8.53,8.18-9.54,9.28-1.82,14.41,1.49,17.25,10.55a5.47,5.47,0,0,0,3.37,3.31,70,70,0,0,0,10,.56c3.76.14,5.42-1.65,5.36-5.44-.18-11.54-9-23.42-20.26-25.65a65.69,65.69,0,0,0-19.29-.83C616.29,577,608.9,583,606.23,593.19a117.38,117.38,0,0,0-.24,58.37c3,12.31,11.38,18.08,24.06,18.81,2.16.12,4.33.07,6.5.06,16.34,0,27.36-9.75,29.42-26,1-7.8.83-8-7.19-8.08a33.82,33.82,0,0,1-3.49-.13c-5-.59-7.57,1.17-8.25,6.62-.88,7.14-5.28,9.85-13.84,9.75-6.54-.07-10.32-3.3-11.19-10.28C621.23,636.07,621,629.74,620.54,624ZM485,427.7a29.27,29.27,0,1,0-29.35-29.21A29.17,29.17,0,0,0,485,427.7Zm143.35,0a29.25,29.25,0,0,0,2.06-58.47c-17-.52-30.31,11.92-30.72,28.67A29.19,29.19,0,0,0,628.38,427.68Z" transform="translate(-358 -302.29)"/><path d="M590.25,472.89c0,7.71.31,15.15-.07,22.55-.55,10.63-3.22,20.74-9.53,29.53-3.12,4.36-7.15,7.69-13,6.74s-7.39-6.05-9-10.85c-.44-1.33-.8-2.68-1.52-5.11-1.19,3.5-1.88,6-2.88,8.36-3.85,9.1-12.09,10.55-18.88,3.25-6.39-6.85-9.37-15.38-10.32-24.43-1-9.82-1.17-19.74-1.67-29.35-11.89,6.66-19,2.58-19.66-12.14-.64-13.15,4.06-24.95,10.52-35.91,3.84-6.53,9.24-12.13,13.92-18.16,1.76-2.27,3.39-2.16,5.89-.68,15.22,9.05,30.56,8.87,46,.19,1.33-.75,4.18-1,5-.17,15.24,15.63,25.62,33.56,25.07,56.22a20.56,20.56,0,0,1-2.32,8.54c-3,5.81-8.77,7.09-14.32,3.59C592.42,474.38,591.37,473.64,590.25,472.89Z" transform="translate(-358 -302.29)"/><path d="M485,519c-.94,2.74-1.44,4.49-2.13,6.16-3.3,7.94-9.54,9.18-15.53,2.88-6.68-7-8.69-16-9.41-25.23-.48-6.21-.09-12.5-.09-18.84-10.11,4.89-16.59,1.49-16.55-9.42.06-18.91,8.83-34,22.15-47.07,12.29,8.27,24.79,9.36,38.39,3.1-1.54,4.92-3.22,9.36-4.31,13.93-2.23,9.29-3.82,18.65,0,28,2.29,5.62,5.88,9.91,11.77,12.17A4.92,4.92,0,0,1,512,488c1.12,10.9.66,21.72-4,31.84a29.32,29.32,0,0,1-6.84,9.62c-5.18,4.59-10.35,3.08-13.19-3.21C487,524.23,486.24,522.07,485,519Z" transform="translate(-358 -302.29)"/><path d="M650.58,427.45c12.78,12.43,20.43,26.59,22.29,43.7a20.43,20.43,0,0,1,0,4.49c-1.22,10.58-7.46,13.63-16.55,7.94,0,6.11.71,12.23-.18,18.1-1.09,7.15-3.46,14.11-5.46,21.09a6.82,6.82,0,0,1-2.5,3.65c-3.22,2.07-6.62,5.08-10.07,5.26-4.35.23-6.21-4.33-7.58-8.2-.38-1.08-.61-2.21-1.15-4.23-1.39,3.2-2.28,5.76-3.57,8.11-2.73,5-7.27,6.43-11.61,2.85a31,31,0,0,1-8-10.46c-4.73-10.07-5.09-20.92-4-31.82a4.43,4.43,0,0,1,1.8-3.05c12-6.55,16.83-15.28,14.73-29-1.27-8.3-3.61-16.44-5.5-24.73C625.74,436.68,638.42,436,650.58,427.45Z" transform="translate(-358 -302.29)"/><path d="M557.74,333.5c19.66.58,35.63,17.07,35.07,36.21-.58,19.82-16.64,35.61-35.95,35.35-19.81-.27-36.18-16.95-35.57-36.24C521.93,348.78,538.29,332.92,557.74,333.5Z" transform="translate(-358 -302.29)"/><path d="M544.09,615.24h25.17c.21-2.91.6-5.82.61-8.73,0-8,0-16-.2-24-.12-4.23,1.58-6,5.84-6.16,12.09-.33,12.34,0,12.16,11.85q-.54,37.74-.58,75.48c0,4.76-1.57,6-6.1,5.85-11.61-.49-11.61-.33-11.61-12V633.74H543.52c0,10.12-.19,20.08.08,30,.12,4.36-1.19,5.94-5.66,5.79-12.05-.39-12.07-.24-12-12.13q.09-37.75.2-75.5c0-3.44,1.49-5.34,5-5.51.33,0,.66,0,1,0,12.1-.42,12.31-.1,12,11.91C543.93,597.11,544.09,605.91,544.09,615.24Z" transform="translate(-358 -302.29)"/><path d="M479.26,575.08c18.17.3,29.35,9.31,31.48,25.67.73,5.53-.78,7.3-6.39,7.46-1.67,0-3.34,0-5,0-4.16.15-6.59-1.15-7.62-5.83-1.75-8-12.79-11.94-19.79-7.52-6.39,4-6.65,11.7-.05,15.34,4.89,2.71,10.52,4.07,15.61,6.47,5.49,2.59,11.61,4.76,15.92,8.77,7.89,7.34,8.12,17,4.89,26.88s-9.86,16.25-20.34,17.46a56.22,56.22,0,0,1-16.84-.16c-14.5-2.8-23-13.63-23.13-28.33,0-1.35.67-3.76,1.35-3.88a86.41,86.41,0,0,1,11.27-1c4.82-.21,5.9,2.91,6.61,7,1.14,6.49,5.6,9.45,13.23,9.55,5.69.08,9.55-2.62,10.92-7.6,1.17-4.23.16-7.81-3.86-9.74-4.77-2.31-9.86-4-14.69-6.17S462.76,625,458.25,622c-8.68-5.85-10.51-14.66-8.54-24.32,2.18-10.74,7.86-18.72,19.18-21.29A102,102,0,0,1,479.26,575.08Z" transform="translate(-358 -302.29)"/><path d="M620.54,624c.44,5.74.69,12.07,1.47,18.33.87,7,4.65,10.21,11.19,10.28,8.56.1,13-2.61,13.84-9.75.68-5.45,3.23-7.21,8.25-6.62a33.82,33.82,0,0,0,3.49.13c8,.1,8.18.28,7.19,8.08-2.06,16.23-13.08,26-29.42,26-2.17,0-4.34.06-6.5-.06-12.68-.73-21-6.5-24.06-18.81a117.38,117.38,0,0,1,.24-58.37C608.9,583,616.29,577,626.66,575.93a65.69,65.69,0,0,1,19.29.83c11.27,2.23,20.08,14.11,20.26,25.65.06,3.79-1.6,5.58-5.36,5.44a70,70,0,0,1-10-.56,5.47,5.47,0,0,1-3.37-3.31c-2.84-9.06-8-12.37-17.25-10.55-5.14,1-7.62,4.76-8.18,9.54C621.3,609.74,621.06,616.57,620.54,624Z" transform="translate(-358 -302.29)"/><path d="M485,427.7a29.27,29.27,0,1,1-.16-58.53A29.27,29.27,0,1,1,485,427.7Z" transform="translate(-358 -302.29)"/><path d="M628.38,427.68a29.19,29.19,0,0,1-28.66-29.8c.41-16.75,13.73-29.19,30.72-28.67a29.25,29.25,0,0,1-2.06,58.47Z" transform="translate(-358 -302.29)"/></svg>